<svg width="20" height="20" viewBox="0 0 20 20" fill="none" xmlns="http://www.w3.org/2000/svg">
<path d="M18.0582 5.7915C17.5249 3.98317 16.0166 2.47484 14.2082 1.94151C12.8332 1.54151 11.8832 1.57484 11.2249 2.06651C10.4332 2.65817 10.3416 3.72484 10.3416 4.48317V6.55817C10.3416 8.60817 11.2749 9.64984 13.1082 9.64984H15.4999C16.2499 9.64984 17.3249 9.55817 17.9166 8.76651C18.4249 8.11651 18.4666 7.1665 18.0582 5.7915Z" fill="url(#paint0_linear_669_3658)"/>
<path opacity="0.4" d="M15.7582 11.1332C15.5416 10.8832 15.2249 10.7415 14.8999 10.7415H11.9166C10.4499 10.7415 9.25825 9.54988 9.25825 8.08321V5.09988C9.25825 4.77488 9.11658 4.45821 8.86658 4.24155C8.62492 4.02488 8.29158 3.92488 7.97492 3.96655C6.01658 4.21655 4.21658 5.29155 3.04158 6.90821C1.85825 8.53321 1.42492 10.5165 1.79992 12.4999C2.34158 15.3665 4.63325 17.6582 7.50825 18.1999C7.96658 18.2915 8.42491 18.3332 8.88325 18.3332C10.3916 18.3332 11.8499 17.8665 13.0916 16.9582C14.7082 15.7832 15.7832 13.9832 16.0332 12.0249C16.0749 11.6999 15.9749 11.3749 15.7582 11.1332Z" fill="url(#paint1_linear_669_3658)"/>
<defs>
<linearGradient id="paint0_linear_669_3658" x1="10.3416" y1="5.65842" x2="20.2998" y2="8.98472" gradientUnits="userSpaceOnUse">
<stop stop-color="#5825E7"/>
<stop offset="0.0625" stop-color="#622AE9"/>
<stop offset="0.125" stop-color="#6C2EEA"/>
<stop offset="0.1875" stop-color="#7633EC"/>
<stop offset="0.25" stop-color="#8037ED"/>
<stop offset="0.3125" stop-color="#893CEF"/>
<stop offset="0.375" stop-color="#9340F0"/>
<stop offset="0.4375" stop-color="#9D45F2"/>
<stop offset="0.5" stop-color="#A74AF3"/>
<stop offset="0.5625" stop-color="#B14EF5"/>
<stop offset="0.625" stop-color="#BB53F6"/>
<stop offset="0.6875" stop-color="#C557F8"/>
<stop offset="0.75" stop-color="#CF5CF9"/>
<stop offset="0.8125" stop-color="#D860FB"/>
<stop offset="0.875" stop-color="#E265FC"/>
<stop offset="0.9375" stop-color="#EC69FE"/>
<stop offset="1" stop-color="#F66EFF"/>
</linearGradient>
<linearGradient id="paint1_linear_669_3658" x1="1.6687" y1="11.1452" x2="19.5818" y2="17.1201" gradientUnits="userSpaceOnUse">
<stop stop-color="#5825E7"/>
<stop offset="0.0625" stop-color="#622AE9"/>
<stop offset="0.125" stop-color="#6C2EEA"/>
<stop offset="0.1875" stop-color="#7633EC"/>
<stop offset="0.25" stop-color="#8037ED"/>
<stop offset="0.3125" stop-color="#893CEF"/>
<stop offset="0.375" stop-color="#9340F0"/>
<stop offset="0.4375" stop-color="#9D45F2"/>
<stop offset="0.5" stop-color="#A74AF3"/>
<stop offset="0.5625" stop-color="#B14EF5"/>
<stop offset="0.625" stop-color="#BB53F6"/>
<stop offset="0.6875" stop-color="#C557F8"/>
<stop offset="0.75" stop-color="#CF5CF9"/>
<stop offset="0.8125" stop-color="#D860FB"/>
<stop offset="0.875" stop-color="#E265FC"/>
<stop offset="0.9375" stop-color="#EC69FE"/>
<stop offset="1" stop-color="#F66EFF"/>
</linearGradient>
</defs>
</svg>
