<svg width="20" height="20" viewBox="0 0 20 20" fill="none" xmlns="http://www.w3.org/2000/svg">
<path d="M16.4256 5.85464L11.8222 2.63027C10.5674 1.75016 8.64134 1.79817 7.43457 2.73428L3.43057 5.86264C2.63137 6.48671 2 7.76686 2 8.77493V14.2956C2 16.3358 3.65435 18 5.69231 18H14.3077C16.3457 18 18 16.3438 18 14.3036V8.87895C18 7.79886 17.3047 6.47071 16.4256 5.85464ZM10.5994 14.7996C10.5994 15.1277 10.3277 15.3997 9.99999 15.3997C9.67232 15.3997 9.40059 15.1277 9.40059 14.7996V12.3994C9.40059 12.0713 9.67232 11.7993 9.99999 11.7993C10.3277 11.7993 10.5994 12.0713 10.5994 12.3994V14.7996Z" fill="#451DB4"/>
</svg>
