<svg width="20" height="20" viewBox="0 0 20 20" fill="none" xmlns="http://www.w3.org/2000/svg">
<path opacity="0.4" d="M15.0333 11.2916C14.6833 11.6332 14.4833 12.1249 14.5333 12.6499C14.6083 13.5499 15.4333 14.2082 16.3333 14.2082H17.9166V15.1999C17.9166 16.9249 16.5083 18.3333 14.7833 18.3333H5.21659C3.49159 18.3333 2.08325 16.9249 2.08325 15.1999V9.59159C2.08325 7.86659 3.49159 6.45825 5.21659 6.45825H14.7833C16.5083 6.45825 17.9166 7.86659 17.9166 9.59159V10.7916H16.2333C15.7666 10.7916 15.3416 10.9749 15.0333 11.2916Z" fill="#451DB4"/>
<path d="M12.3749 3.29177V6.45843H5.21659C3.49159 6.45843 2.08325 7.86677 2.08325 9.59177V6.53345C2.08325 5.54178 2.69159 4.65841 3.61659 4.30841L10.2333 1.80841C11.2666 1.42508 12.3749 2.18344 12.3749 3.29177Z" fill="#451DB4"/>
<path d="M18.8001 11.6415V13.3582C18.8001 13.8165 18.4335 14.1915 17.9668 14.2082H16.3335C15.4335 14.2082 14.6085 13.5498 14.5335 12.6498C14.4835 12.1248 14.6835 11.6332 15.0335 11.2915C15.3418 10.9748 15.7668 10.7915 16.2335 10.7915H17.9668C18.4335 10.8082 18.8001 11.1831 18.8001 11.6415Z" fill="#451DB4"/>
<path d="M11.6666 10.625H5.83325C5.49159 10.625 5.20825 10.3417 5.20825 10C5.20825 9.65833 5.49159 9.375 5.83325 9.375H11.6666C12.0083 9.375 12.2916 9.65833 12.2916 10C12.2916 10.3417 12.0083 10.625 11.6666 10.625Z" fill="#451DB4"/>
</svg>
