<svg width="20" height="20" viewBox="0 0 20 20" fill="none" xmlns="http://www.w3.org/2000/svg">
<path opacity="0.4" d="M15.3917 14.0251L15.7167 16.6584C15.8 17.3501 15.0584 17.8334 14.4667 17.4751L10.975 15.4001C10.5917 15.4001 10.2167 15.3751 9.85004 15.3251C10.4667 14.6001 10.8334 13.6834 10.8334 12.6917C10.8334 10.3251 8.78337 8.40844 6.25004 8.40844C5.28337 8.40844 4.39171 8.68341 3.65004 9.16675C3.62504 8.95841 3.6167 8.75007 3.6167 8.53341C3.6167 4.74174 6.90837 1.66675 10.975 1.66675C15.0417 1.66675 18.3334 4.74174 18.3334 8.53341C18.3334 10.7834 17.175 12.7751 15.3917 14.0251Z" fill="#451DB4"/>
<path d="M10.8334 12.6917C10.8334 13.6834 10.4668 14.6001 9.85009 15.3251C9.02509 16.3251 7.71675 16.9667 6.25008 16.9667L4.07508 18.2584C3.70841 18.4834 3.24175 18.1751 3.29175 17.7501L3.50008 16.1084C2.38341 15.3334 1.66675 14.0917 1.66675 12.6917C1.66675 11.2251 2.45009 9.93342 3.65009 9.16676C4.39175 8.68342 5.28341 8.40845 6.25008 8.40845C8.78341 8.40845 10.8334 10.3251 10.8334 12.6917Z" fill="#451DB4"/>
</svg>
