<svg width="20" height="20" viewBox="0 0 20 20" fill="none" xmlns="http://www.w3.org/2000/svg">
<path d="M17.5751 5.81676C16.8668 5.03343 15.6834 4.64176 13.9668 4.64176H13.7668V4.60843C13.7668 3.20843 13.7668 1.4751 10.6334 1.4751H9.36678C6.23345 1.4751 6.23345 3.21676 6.23345 4.60843V4.6501H6.03345C4.30845 4.6501 3.13345 5.04176 2.42511 5.8251C1.60011 6.74176 1.62511 7.9751 1.70845 8.81676L1.71678 8.8751L1.80011 9.7501C1.80845 9.75843 1.82511 9.7751 1.84178 9.78343C2.11678 9.96676 2.40011 10.1501 2.70011 10.3168C2.81678 10.3918 2.94178 10.4584 3.06678 10.5251C4.49178 11.3084 6.05845 11.8334 7.65011 12.0918C7.72511 12.8751 8.06678 13.7918 9.89178 13.7918C11.7168 13.7918 12.0751 12.8834 12.1334 12.0751C13.8334 11.8001 15.4751 11.2084 16.9584 10.3418C17.0084 10.3168 17.0418 10.2918 17.0834 10.2668C17.4668 10.0501 17.8251 9.81676 18.1751 9.55843C18.1918 9.5501 18.2084 9.53343 18.2168 9.51676L18.2501 9.21676L18.2918 8.8251C18.3001 8.7751 18.3001 8.73343 18.3084 8.6751C18.3751 7.83343 18.3584 6.68343 17.5751 5.81676ZM10.9084 11.5251C10.9084 12.4084 10.9084 12.5418 9.88344 12.5418C8.85845 12.5418 8.85845 12.3834 8.85845 11.5334V10.4834H10.9084V11.5251ZM7.42511 4.64176V4.60843C7.42511 3.19176 7.42511 2.66676 9.36678 2.66676H10.6334C12.5751 2.66676 12.5751 3.2001 12.5751 4.60843V4.6501H7.42511V4.64176Z" fill="#451DB4"/>
<path opacity="0.4" d="M17.0831 10.25C17.0415 10.275 16.9998 10.3 16.9581 10.325C15.4748 11.1917 13.8331 11.775 12.1331 12.0583C12.0665 12.8583 11.7165 13.775 9.89147 13.775C8.06647 13.775 7.71647 12.8667 7.64981 12.075C6.05814 11.825 4.49147 11.3 3.06647 10.5083C2.94147 10.4417 2.81647 10.375 2.6998 10.3C2.3998 10.1333 2.11647 9.95 1.84147 9.76667C1.8248 9.75833 1.80814 9.74167 1.7998 9.73333L2.30814 15.1583C2.48314 16.8167 3.16647 18.525 6.83314 18.525H13.1831C16.8498 18.525 17.5331 16.8167 17.7081 15.15L18.2331 9.5C18.2248 9.51667 18.2081 9.53333 18.1915 9.54167C17.8331 9.8 17.4665 10.0417 17.0831 10.25Z" fill="#451DB4"/>
</svg>
