<svg width="20" height="20" viewBox="0 0 20 20" fill="none" xmlns="http://www.w3.org/2000/svg">
<path opacity="0.4" d="M13.4917 7.38317C13.1667 7.38317 12.9084 7.12484 12.9084 6.79984V5.73317C12.9084 4.9165 12.5584 4.13317 11.9584 3.58317C11.3417 3.02484 10.55 2.7665 9.71672 2.8415C8.31672 2.97484 7.09172 4.39984 7.09172 5.88317V6.63317C7.09172 6.95817 6.83338 7.2165 6.50838 7.2165C6.18338 7.2165 5.92505 6.95817 5.92505 6.63317V5.88317C5.92505 3.79984 7.60838 1.87484 9.60005 1.68317C10.7584 1.57484 11.875 1.9415 12.7334 2.72484C13.5834 3.4915 14.0667 4.5915 14.0667 5.73317V6.79984C14.0667 7.12484 13.8084 7.38317 13.4917 7.38317Z" fill="#451DB4"/>
<path d="M16.6333 7.46665C15.9333 6.69165 14.7833 6.31665 13.1 6.31665H6.89995C5.21662 6.31665 4.06662 6.69165 3.36662 7.46665C2.55828 8.36665 2.58328 9.56665 2.67495 10.4L3.25828 15.0416C3.43328 16.6666 4.09162 18.3333 7.67495 18.3333H12.325C15.9083 18.3333 16.5666 16.6666 16.7416 15.05L17.325 10.3917C17.4166 9.56665 17.4333 8.36665 16.6333 7.46665ZM7.01662 10.9583H7.00828C6.54995 10.9583 6.17495 10.5833 6.17495 10.125C6.17495 9.66665 6.54995 9.29165 7.00828 9.29165C7.47495 9.29165 7.84995 9.66665 7.84995 10.125C7.84995 10.5833 7.47495 10.9583 7.01662 10.9583ZM12.85 10.9583H12.8416C12.3833 10.9583 12.0083 10.5833 12.0083 10.125C12.0083 9.66665 12.3833 9.29165 12.8416 9.29165C13.3083 9.29165 13.6833 9.66665 13.6833 10.125C13.6833 10.5833 13.3083 10.9583 12.85 10.9583Z" fill="#451DB4"/>
</svg>
