<svg width="64" height="64" viewBox="0 0 64 64" fill="none" xmlns="http://www.w3.org/2000/svg">
<rect x="1" y="1" width="62" height="62" rx="31" fill="white"/>
<rect x="1" y="1" width="62" height="62" rx="31" stroke="#EBEDF0" stroke-width="2"/>
<path d="M32.0002 32.0003C35.6821 32.0003 38.6668 29.0156 38.6668 25.3337C38.6668 21.6518 35.6821 18.667 32.0002 18.667C28.3183 18.667 25.3335 21.6518 25.3335 25.3337C25.3335 29.0156 28.3183 32.0003 32.0002 32.0003Z" fill="#6B788E"/>
<path d="M32.0004 35.333C25.3204 35.333 19.8804 39.813 19.8804 45.333C19.8804 45.7063 20.1737 45.9997 20.547 45.9997H43.4537C43.827 45.9997 44.1204 45.7063 44.1204 45.333C44.1204 39.813 38.6804 35.333 32.0004 35.333Z" fill="#6B788E"/>
</svg>
