<svg width="44" height="44" viewBox="0 0 44 44" fill="none" xmlns="http://www.w3.org/2000/svg">
<g id="vuesax/bulk/book">
<g id="book">
<path id="Vector" opacity="0.4" d="M22 9.71644V39.1048C21.6884 39.1048 21.3584 39.0498 21.1017 38.9031L21.0284 38.8664C17.5084 36.9414 11.3667 34.9248 7.38835 34.3931L6.85669 34.3198C5.09669 34.0998 3.66669 32.4498 3.66669 30.6898V8.54311C3.66669 6.36144 5.44502 4.71144 7.62669 4.89478C11.4767 5.20644 17.3067 7.14978 20.57 9.18478L21.0284 9.45978C21.3034 9.62478 21.6517 9.71644 22 9.71644Z" fill="#6B788E"/>
<path id="Vector_2" d="M40.3333 8.56082V30.6892C40.3333 32.4492 38.9033 34.0992 37.1433 34.3192L36.5383 34.3925C32.5417 34.9242 26.3817 36.9592 22.8617 38.9025C22.6233 39.0492 22.33 39.1042 22 39.1042V9.71582C22.3483 9.71582 22.6967 9.62416 22.9717 9.45916L23.2833 9.25749C26.5467 7.20416 32.395 5.24249 36.245 4.91249H36.355C38.5367 4.72916 40.3333 6.36082 40.3333 8.56082Z" fill="#6B788E"/>
<path id="Vector_3" d="M14.2083 16.9414H10.0833C9.33165 16.9414 8.70831 16.3181 8.70831 15.5664C8.70831 14.8147 9.33165 14.1914 10.0833 14.1914H14.2083C14.96 14.1914 15.5833 14.8147 15.5833 15.5664C15.5833 16.3181 14.96 16.9414 14.2083 16.9414Z" fill="#6B788E"/>
<path id="Vector_4" d="M15.5833 22.4414H10.0833C9.33165 22.4414 8.70831 21.8181 8.70831 21.0664C8.70831 20.3147 9.33165 19.6914 10.0833 19.6914H15.5833C16.335 19.6914 16.9583 20.3147 16.9583 21.0664C16.9583 21.8181 16.335 22.4414 15.5833 22.4414Z" fill="#6B788E"/>
</g>
</g>
</svg>
