<svg width="44" height="45" viewBox="0 0 44 45" fill="none" xmlns="http://www.w3.org/2000/svg">
<path opacity="0.4" d="M37.5832 13.3337V28.0003H11.6415C8.76317 28.0003 6.4165 30.347 6.4165 33.2253V13.3337C6.4165 6.00033 8.24984 4.16699 15.5832 4.16699H28.4165C35.7498 4.16699 37.5832 6.00033 37.5832 13.3337Z" fill="#6B788E"/>
<path d="M37.5832 28V34.4167C37.5832 37.955 34.7048 40.8333 31.1665 40.8333H12.8332C9.29484 40.8333 6.4165 37.955 6.4165 34.4167V33.225C6.4165 30.3467 8.76317 28 11.6415 28H37.5832Z" fill="#6B788E"/>
<path d="M29.3332 14.708H14.6665C13.9148 14.708 13.2915 14.0847 13.2915 13.333C13.2915 12.5813 13.9148 11.958 14.6665 11.958H29.3332C30.0848 11.958 30.7082 12.5813 30.7082 13.333C30.7082 14.0847 30.0848 14.708 29.3332 14.708Z" fill="#6B788E"/>
<path d="M23.8332 21.125H14.6665C13.9148 21.125 13.2915 20.5017 13.2915 19.75C13.2915 18.9983 13.9148 18.375 14.6665 18.375H23.8332C24.5848 18.375 25.2082 18.9983 25.2082 19.75C25.2082 20.5017 24.5848 21.125 23.8332 21.125Z" fill="#6B788E"/>
</svg>
