<svg width="20" height="20" viewBox="0 0 20 20" fill="none" xmlns="http://www.w3.org/2000/svg">
<path d="M4.61666 16.2656C4.10832 16.2656 3.63332 16.0906 3.29166 15.7656C2.85832 15.3573 2.64999 14.7406 2.72499 14.074L3.03332 11.374C3.09166 10.8656 3.39999 10.1906 3.75832 9.82398L10.6 2.58232C12.3083 0.773983 14.0917 0.723983 15.9 2.43232C17.7083 4.14065 17.7583 5.92398 16.05 7.73232L9.20832 14.974C8.85832 15.349 8.20832 15.699 7.69999 15.7823L5.01666 16.2406C4.87499 16.249 4.74999 16.2656 4.61666 16.2656ZM13.275 2.42398C12.6333 2.42398 12.075 2.82398 11.5083 3.42398L4.66666 10.674C4.49999 10.849 4.30832 11.2656 4.27499 11.5073L3.96666 14.2073C3.93332 14.4823 3.99999 14.7073 4.14999 14.849C4.29999 14.9906 4.52499 15.0406 4.79999 14.999L7.48332 14.5407C7.72499 14.499 8.12499 14.2823 8.29166 14.1073L15.1333 6.86565C16.1667 5.76565 16.5417 4.74898 15.0333 3.33232C14.3667 2.69065 13.7917 2.42398 13.275 2.42398Z" fill="#5825E7"/>
<path d="M14.45 9.12601C14.4333 9.12601 14.4083 9.12601 14.3916 9.12601C11.7916 8.86768 9.69996 6.89268 9.29996 4.30935C9.24996 3.96768 9.48329 3.65101 9.82496 3.59268C10.1666 3.54268 10.4833 3.77601 10.5416 4.11768C10.8583 6.13435 12.4916 7.68435 14.525 7.88435C14.8666 7.91768 15.1166 8.22601 15.0833 8.56768C15.0416 8.88435 14.7666 9.12601 14.45 9.12601Z" fill="#5825E7"/>
</svg>
