<svg width="44" height="44" viewBox="0 0 44 44" fill="none" xmlns="http://www.w3.org/2000/svg">
<path opacity="0.6" d="M32.615 19.1949V21.9999H3.66669V19.1949C3.66669 14.9416 7.13169 11.4766 11.385 11.4766H24.8967C29.15 11.4766 32.615 14.9416 32.615 19.1949Z" fill="#6B788E"/>
<path opacity="0.4" d="M32.615 22V32.615C32.615 36.8683 29.15 40.3333 24.8967 40.3333H11.385C7.13169 40.3333 3.66669 36.8683 3.66669 32.615V22H32.615Z" fill="#6B788E"/>
<path d="M10.0833 9.38411C9.33165 9.38411 8.70831 8.76078 8.70831 8.00911V4.80078C8.70831 4.04911 9.33165 3.42578 10.0833 3.42578C10.835 3.42578 11.4583 4.04911 11.4583 4.80078V8.00911C11.4583 8.77911 10.835 9.38411 10.0833 9.38411Z" fill="#6B788E"/>
<path d="M17.4167 9.38411C16.665 9.38411 16.0417 8.76078 16.0417 8.00911V4.80078C16.0417 4.04911 16.665 3.42578 17.4167 3.42578C18.1684 3.42578 18.7917 4.04911 18.7917 4.80078V8.00911C18.7917 8.77911 18.1684 9.38411 17.4167 9.38411Z" fill="#6B788E"/>
<path d="M24.75 9.38411C23.9983 9.38411 23.375 8.76078 23.375 8.00911V4.80078C23.375 4.04911 23.9983 3.42578 24.75 3.42578C25.5017 3.42578 26.125 4.04911 26.125 4.80078V8.00911C26.125 8.77911 25.5017 9.38411 24.75 9.38411Z" fill="#6B788E"/>
<path d="M39.6917 26.2535C39.6917 30.1952 36.5017 33.3852 32.56 33.3852V19.1035C36.4833 19.1035 39.6917 22.3118 39.6917 26.2535Z" fill="#6B788E"/>
</svg>
