<svg width="34" height="34" viewBox="0 0 34 34" fill="none" xmlns="http://www.w3.org/2000/svg">
<rect x="0.636353" y="0.636719" width="32.7273" height="32.7273" rx="16.3636" fill="#E9755D"/>
<path d="M23.8181 12.4393C21.2954 12.1893 18.7575 12.0605 16.2272 12.0605C14.7272 12.0605 13.2272 12.1363 11.7272 12.2878L10.1818 12.4393" stroke="white" stroke-width="1.6" stroke-linecap="round" stroke-linejoin="round"/>
<path d="M14.3484 11.6738L14.5151 10.6814C14.6363 9.96171 14.7272 9.42383 16.0075 9.42383H17.9923C19.2726 9.42383 19.3711 9.99201 19.4848 10.689L19.6514 11.6738" stroke="white" stroke-width="1.6" stroke-linecap="round" stroke-linejoin="round"/>
<path d="M22.1893 14.834L21.6969 22.4628C21.6136 23.6522 21.5454 24.5764 19.4318 24.5764H14.5681C12.4545 24.5764 12.3863 23.6522 12.303 22.4628L11.8105 14.834" stroke="white" stroke-width="1.6" stroke-linecap="round" stroke-linejoin="round"/>
<path d="M15.7349 20.4102H18.2576" stroke="white" stroke-width="1.6" stroke-linecap="round" stroke-linejoin="round"/>
<path d="M15.1061 17.3789H18.894" stroke="white" stroke-width="1.6" stroke-linecap="round" stroke-linejoin="round"/>
</svg>
