<svg width="32" height="32" viewBox="0 0 32 32" fill="none" xmlns="http://www.w3.org/2000/svg">
<rect width="32" height="32" rx="4" fill="#F5F6F7"/>
<path d="M23.77 15.25H19.73C17.72 15.25 16.75 14.36 16.75 12.52V7.98C16.75 6.14 17.73 5.25 19.73 5.25H23.77C25.78 5.25 26.75 6.14 26.75 7.98V12.51C26.75 14.36 25.77 15.25 23.77 15.25ZM19.73 6.75C18.39 6.75 18.25 7.13 18.25 7.98V12.51C18.25 13.37 18.39 13.74 19.73 13.74H23.77C25.11 13.74 25.25 13.36 25.25 12.51V7.98C25.25 7.12 25.11 6.75 23.77 6.75H19.73Z" fill="#505F79"/>
<path d="M23.77 26.75H19.73C17.72 26.75 16.75 25.77 16.75 23.77V19.73C16.75 17.72 17.73 16.75 19.73 16.75H23.77C25.78 16.75 26.75 17.73 26.75 19.73V23.77C26.75 25.77 25.77 26.75 23.77 26.75ZM19.73 18.25C18.55 18.25 18.25 18.55 18.25 19.73V23.77C18.25 24.95 18.55 25.25 19.73 25.25H23.77C24.95 25.25 25.25 24.95 25.25 23.77V19.73C25.25 18.55 24.95 18.25 23.77 18.25H19.73Z" fill="#505F79"/>
<path d="M12.27 15.25H8.23C6.22 15.25 5.25 14.36 5.25 12.52V7.98C5.25 6.14 6.23 5.25 8.23 5.25H12.27C14.28 5.25 15.25 6.14 15.25 7.98V12.51C15.25 14.36 14.27 15.25 12.27 15.25ZM8.23 6.75C6.89 6.75 6.75 7.13 6.75 7.98V12.51C6.75 13.37 6.89 13.74 8.23 13.74H12.27C13.61 13.74 13.75 13.36 13.75 12.51V7.98C13.75 7.12 13.61 6.75 12.27 6.75H8.23Z" fill="#505F79"/>
<path d="M12.27 26.75H8.23C6.22 26.75 5.25 25.77 5.25 23.77V19.73C5.25 17.72 6.23 16.75 8.23 16.75H12.27C14.28 16.75 15.25 17.73 15.25 19.73V23.77C15.25 25.77 14.27 26.75 12.27 26.75ZM8.23 18.25C7.05 18.25 6.75 18.55 6.75 19.73V23.77C6.75 24.95 7.05 25.25 8.23 25.25H12.27C13.45 25.25 13.75 24.95 13.75 23.77V19.73C13.75 18.55 13.45 18.25 12.27 18.25H8.23Z" fill="#505F79"/>
</svg>
