<svg width="44" height="44" viewBox="0 0 44 44" fill="none" xmlns="http://www.w3.org/2000/svg">
<path opacity="0.4" d="M40.3332 14.3187V25.4837L37.3448 22.917C35.9148 21.6887 33.6048 21.6887 32.1748 22.917L24.5482 29.462C23.1182 30.6903 20.8082 30.6903 19.3782 29.462L18.7548 28.9487C17.4532 27.812 15.3815 27.702 13.9148 28.692L4.89484 34.742L4.69317 34.8887C4.01484 33.422 3.6665 31.6803 3.6665 29.682V14.3187C3.6665 7.64533 7.64484 3.66699 14.3182 3.66699H29.6815C36.3548 3.66699 40.3332 7.64533 40.3332 14.3187Z" fill="#6B788E"/>
<path d="M16.5001 19.0304C18.9099 19.0304 20.8634 17.0768 20.8634 14.667C20.8634 12.2572 18.9099 10.3037 16.5001 10.3037C14.0902 10.3037 12.1367 12.2572 12.1367 14.667C12.1367 17.0768 14.0902 19.0304 16.5001 19.0304Z" fill="#6B788E"/>
<path d="M40.3334 25.4821V29.6804C40.3334 36.3537 36.355 40.3321 29.6817 40.3321H14.3184C9.64336 40.3321 6.27003 38.3704 4.69336 34.8871L4.89503 34.7404L13.915 28.6904C15.3817 27.7004 17.4534 27.8104 18.755 28.9471L19.3784 29.4604C20.8084 30.6887 23.1184 30.6887 24.5484 29.4604L32.175 22.9154C33.605 21.6871 35.915 21.6871 37.345 22.9154L40.3334 25.4821Z" fill="#6B788E"/>
</svg>
