<svg width="36" height="36" viewBox="0 0 36 36" fill="none" xmlns="http://www.w3.org/2000/svg">
<path opacity="0.4" d="M29.8194 31.4099C28.3944 32.4599 26.5194 32.9998 24.2844 32.9998H11.7144C11.3544 32.9998 10.9944 32.9848 10.6494 32.9398L20.9994 22.5898L29.8194 31.4099Z" fill="#6B788E"/>
<path opacity="0.4" d="M32.9994 11.7144V24.2844C32.9994 26.5194 32.4594 28.3944 31.4094 29.8194L22.5894 20.9994L32.9393 10.6494C32.9843 10.9944 32.9994 11.3544 32.9994 11.7144Z" fill="#6B788E"/>
<path opacity="0.4" d="M22.59 21L31.41 29.82C30.975 30.45 30.45 30.975 29.82 31.41L21 22.59L10.65 32.94C9.69001 32.88 8.82001 32.685 8.02501 32.385C4.81501 31.215 3 28.365 3 24.285V11.715C3 6.255 6.255 3 11.715 3H24.285C28.365 3 31.215 4.815 32.385 8.025C32.685 8.82 32.88 9.69 32.94 10.65L22.59 21Z" fill="#6B788E"/>
<path d="M22.5894 20.9994L31.4094 29.8194C30.9744 30.4494 30.4494 30.9744 29.8194 31.4094L20.9994 22.5894L10.6494 32.9394C9.68941 32.8794 8.81941 32.6844 8.02441 32.3844L8.60939 31.7994L32.3844 8.02441C32.6844 8.81941 32.8794 9.68941 32.9394 10.6494L22.5894 20.9994Z" fill="#6B788E"/>
<path d="M18.3597 11.8949C17.7897 9.41992 15.5997 8.30992 13.6797 8.29492C11.7597 8.29492 9.56972 9.40492 8.99972 11.8799C8.36972 14.6249 10.0497 16.9199 11.5647 18.3599C12.1647 18.9299 12.9147 19.1999 13.6797 19.1999C14.4447 19.1999 15.1947 18.9149 15.7947 18.3599C17.3097 16.9199 18.9897 14.6249 18.3597 11.8949ZM13.7247 14.2349C12.8997 14.2349 12.2247 13.5599 12.2247 12.7349C12.2247 11.9099 12.8847 11.2349 13.7247 11.2349H13.7397C14.5647 11.2349 15.2397 11.9099 15.2397 12.7349C15.2397 13.5599 14.5497 14.2349 13.7247 14.2349Z" fill="#6B788E"/>
</svg>
