<svg width="45" height="44" viewBox="0 0 45 44" fill="none" xmlns="http://www.w3.org/2000/svg">
<path opacity="0.4" d="M30.1815 3.66699H14.8365C8.14484 3.66699 4.1665 7.64532 4.1665 14.3187V29.6637C4.1665 36.337 8.14484 40.3153 14.8182 40.3153H30.1632C36.8365 40.3153 40.8148 36.337 40.8148 29.6637V14.3187C40.8332 7.64532 36.8548 3.66699 30.1815 3.66699Z" fill="#6B788E"/>
<path d="M32.3083 16.5908L28.0183 30.4141C26.9916 33.6958 22.3899 33.7508 21.3083 30.4875L20.025 26.6925C19.6766 25.6475 18.8516 24.8041 17.8066 24.4741L13.9933 23.1908C10.7483 22.1091 10.8033 17.4708 14.085 16.4808L27.9083 12.1725C30.6216 11.3475 33.1699 13.8958 32.3083 16.5908Z" fill="#6B788E"/>
</svg>
