<svg width="29" height="29" viewBox="0 0 29 29" fill="none" xmlns="http://www.w3.org/2000/svg">
<rect x="0.5" y="0.75" width="28" height="28" rx="5" fill="#F5F6F7"/>
<path d="M7.69444 12.8066C6.625 12.8066 5.75 13.6816 5.75 14.7511C5.75 15.8205 6.625 16.6955 7.69444 16.6955C8.76389 16.6955 9.63889 15.8205 9.63889 14.7511C9.63889 13.6816 8.76389 12.8066 7.69444 12.8066Z" fill="#F5F6F7" stroke="#354764" stroke-width="1.45833"/>
<path d="M21.3055 12.8066C20.2361 12.8066 19.3611 13.6816 19.3611 14.7511C19.3611 15.8205 20.2361 16.6955 21.3055 16.6955C22.375 16.6955 23.25 15.8205 23.25 14.7511C23.25 13.6816 22.375 12.8066 21.3055 12.8066Z" fill="#F5F6F7" stroke="#354764" stroke-width="1.45833"/>
<path d="M14.4999 12.8066C13.4304 12.8066 12.5554 13.6816 12.5554 14.7511C12.5554 15.8205 13.4304 16.6955 14.4999 16.6955C15.5693 16.6955 16.4443 15.8205 16.4443 14.7511C16.4443 13.6816 15.5693 12.8066 14.4999 12.8066Z" fill="#F5F6F7" stroke="#354764" stroke-width="1.45833"/>
</svg>
