<svg width="45" height="44" viewBox="0 0 45 44" fill="none" xmlns="http://www.w3.org/2000/svg">
<path opacity="0.4" d="M40.8334 14.3177V29.681C40.8334 36.3544 36.855 40.3327 30.1817 40.3327H14.8184C8.14502 40.3327 4.16669 36.3544 4.16669 29.681V14.3177C4.16669 13.3827 4.24002 12.4843 4.40502 11.6593C5.34002 6.61768 9.06169 3.68435 14.745 3.66602H30.255C35.9384 3.68435 39.66 6.61768 40.595 11.6593C40.76 12.4843 40.8334 13.3827 40.8334 14.3177Z" fill="#6B788E"/>
<path d="M40.8334 14.3177V14.4093H4.16669V14.3177C4.16669 13.3827 4.24002 12.4843 4.40502 11.6593H14.745V3.66602H17.495V11.6593H27.505V3.66602H30.255V11.6593H40.595C40.76 12.4843 40.8334 13.3827 40.8334 14.3177Z" fill="#6B788E"/>
<path d="M26.9733 23.3208L23.16 21.1208C21.7483 20.3142 20.3917 20.2042 19.3283 20.8092C18.265 21.4142 17.6783 22.6608 17.6783 24.2742V28.6742C17.6783 30.2875 18.265 31.5342 19.3283 32.1392C19.7867 32.3958 20.3 32.5242 20.8317 32.5242C21.565 32.5242 22.3533 32.2858 23.16 31.8275L26.9733 29.6275C28.385 28.8208 29.155 27.6842 29.155 26.4558C29.155 25.2275 28.3667 24.1458 26.9733 23.3208Z" fill="#6B788E"/>
</svg>
