<svg width="45" height="45" viewBox="0 0 45 45" fill="none" xmlns="http://www.w3.org/2000/svg">
<g id="vuesax/bulk/link-2">
<g id="link-2">
<path id="Vector" d="M35.4617 26.6069C34.93 27.1386 34.0867 27.1386 33.5733 26.6069C33.0417 26.0753 33.0417 25.2319 33.5733 24.7186C37.24 21.0519 37.24 15.0936 33.5733 11.4453C29.9067 7.79693 23.9483 7.7786 20.3 11.4453C16.6517 15.1119 16.6333 21.0703 20.3 24.7186C20.8317 25.2503 20.8317 26.0936 20.3 26.6069C19.7683 27.1386 18.925 27.1386 18.4117 26.6069C13.7 21.8953 13.7 14.2319 18.4117 9.5386C23.1233 4.84526 30.7867 4.82693 35.48 9.5386C40.1733 14.2503 40.1733 21.8953 35.4617 26.6069Z" fill="#6B788E"/>
<path id="Vector_2" opacity="0.1" d="M35.4617 9.53766C40.1734 14.2493 40.1734 21.8943 35.4617 26.606C33.8484 28.2193 31.8684 29.2827 29.7967 29.796C30.7684 25.836 29.705 21.491 26.6067 18.3927C23.5084 15.2943 19.1634 14.231 15.2034 15.2027C15.7167 13.131 16.7617 11.151 18.3934 9.53766C23.105 4.82599 30.75 4.82599 35.4617 9.53766Z" fill="#6B788E"/>
<path id="Vector_3" d="M9.53824 18.3948C10.0699 17.8632 10.9132 17.8632 11.4266 18.3948C11.9582 18.9265 11.9582 19.7698 11.4266 20.2832C7.75991 23.9498 7.75991 29.9082 11.4266 33.5565C15.0932 37.2048 21.0516 37.2232 24.6999 33.5565C28.3482 29.8898 28.3666 23.9315 24.6999 20.2832C24.1682 19.7515 24.1682 18.9082 24.6999 18.3948C25.2316 17.8632 26.0749 17.8632 26.5882 18.3948C31.2999 23.1065 31.2999 30.7698 26.5882 35.4632C21.8766 40.1565 14.2132 40.1748 9.51991 35.4632C4.82658 30.7515 4.82658 23.1065 9.53824 18.3948Z" fill="#6B788E"/>
<path id="Vector_4" opacity="0.2" d="M26.6066 18.3934C29.7049 21.4918 30.7683 25.8368 29.7966 29.7968C29.2833 31.8684 28.2199 33.8484 26.6066 35.4618C21.8949 40.1734 14.2499 40.1734 9.53827 35.4618C4.8266 30.7501 4.8266 23.1051 9.53827 18.3934C11.1516 16.7618 13.1316 15.7168 15.2033 15.2034C19.1633 14.2318 23.5083 15.2951 26.6066 18.3934Z" fill="#6B788E"/>
</g>
</g>
</svg>
