<svg width="32" height="32" viewBox="0 0 32 32" fill="none" xmlns="http://www.w3.org/2000/svg">
<path d="M23.9 26.75H8.1C6.18 26.75 5.25 25.77 5.25 23.77V19.73C5.25 17.72 6.18 16.75 8.1 16.75H23.9C25.82 16.75 26.75 17.73 26.75 19.73V23.77C26.75 25.77 25.82 26.75 23.9 26.75ZM8.1 18.25C7.09 18.25 6.75 18.46 6.75 19.73V23.77C6.75 25.04 7.09 25.25 8.1 25.25H23.9C24.91 25.25 25.25 25.04 25.25 23.77V19.73C25.25 18.46 24.91 18.25 23.9 18.25H8.1Z" fill="#42526D"/>
<path d="M23.9 15.25H8.1C6.18 15.25 5.25 14.27 5.25 12.27V8.23C5.25 6.22 6.18 5.25 8.1 5.25H23.9C25.82 5.25 26.75 6.23 26.75 8.23V12.27C26.75 14.27 25.82 15.25 23.9 15.25ZM8.1 6.75C7.09 6.75 6.75 6.96 6.75 8.23V12.27C6.75 13.54 7.09 13.75 8.1 13.75H23.9C24.91 13.75 25.25 13.54 25.25 12.27V8.23C25.25 6.96 24.91 6.75 23.9 6.75H8.1Z" fill="#42526D"/>
</svg>
