<svg width="20" height="20" viewBox="0 0 20 20" fill="none" xmlns="http://www.w3.org/2000/svg">
<path d="M7.63314 9.68268C7.60814 9.68268 7.59147 9.68268 7.56647 9.68268C7.5248 9.67435 7.46647 9.67435 7.41647 9.68268C4.9998 9.60768 3.1748 7.70768 3.1748 5.36602C3.1748 2.98268 5.11647 1.04102 7.4998 1.04102C9.88314 1.04102 11.8248 2.98268 11.8248 5.36602C11.8165 7.70768 9.98314 9.60768 7.65814 9.68268C7.6498 9.68268 7.64147 9.68268 7.63314 9.68268ZM7.4998 2.29102C5.80814 2.29102 4.4248 3.67435 4.4248 5.36602C4.4248 7.03268 5.7248 8.37435 7.38314 8.43268C7.43314 8.42435 7.54147 8.42435 7.6498 8.43268C9.28314 8.35768 10.5665 7.01602 10.5748 5.36602C10.5748 3.67435 9.19147 2.29102 7.4998 2.29102Z" fill="#6B788E"/>
<path d="M13.783 9.79232C13.758 9.79232 13.733 9.79232 13.708 9.78398C13.3663 9.81732 13.0163 9.57565 12.983 9.23398C12.9496 8.89232 13.158 8.58398 13.4996 8.54232C13.5996 8.53398 13.708 8.53398 13.7996 8.53398C15.0163 8.46732 15.9663 7.46732 15.9663 6.24232C15.9663 4.97565 14.9413 3.95065 13.6746 3.95065C13.333 3.95898 13.0496 3.67565 13.0496 3.33398C13.0496 2.99232 13.333 2.70898 13.6746 2.70898C15.6246 2.70898 17.2163 4.30065 17.2163 6.25065C17.2163 8.16732 15.7163 9.71732 13.808 9.79232C13.7996 9.79232 13.7913 9.79232 13.783 9.79232Z" fill="#6B788E"/>
<path d="M7.64134 18.7923C6.00801 18.7923 4.36634 18.3756 3.12467 17.5423C1.96634 16.7756 1.33301 15.7257 1.33301 14.584C1.33301 13.4423 1.96634 12.384 3.12467 11.609C5.62467 9.95065 9.67467 9.95065 12.158 11.609C13.308 12.3757 13.9497 13.4256 13.9497 14.5673C13.9497 15.709 13.3163 16.7673 12.158 17.5423C10.908 18.3756 9.27467 18.7923 7.64134 18.7923ZM3.81634 12.659C3.01634 13.1923 2.58301 13.8757 2.58301 14.5923C2.58301 15.3007 3.02467 15.984 3.81634 16.509C5.89134 17.9006 9.39134 17.9006 11.4663 16.509C12.2663 15.9756 12.6997 15.2923 12.6997 14.5757C12.6997 13.8673 12.258 13.184 11.4663 12.659C9.39134 11.2757 5.89134 11.2757 3.81634 12.659Z" fill="#6B788E"/>
<path d="M15.283 17.2917C14.9913 17.2917 14.733 17.0917 14.6746 16.7917C14.608 16.45 14.8246 16.125 15.158 16.05C15.683 15.9417 16.1663 15.7333 16.5413 15.4417C17.0163 15.0833 17.2746 14.6333 17.2746 14.1583C17.2746 13.6833 17.0163 13.2333 16.5496 12.8833C16.183 12.6 15.7246 12.4 15.183 12.275C14.8496 12.2 14.633 11.8667 14.708 11.525C14.783 11.1917 15.1163 10.975 15.458 11.05C16.1746 11.2083 16.7996 11.4917 17.308 11.8833C18.083 12.4667 18.5246 13.2917 18.5246 14.1583C18.5246 15.025 18.0746 15.85 17.2996 16.4417C16.783 16.8417 16.133 17.1333 15.4163 17.275C15.3663 17.2917 15.3246 17.2917 15.283 17.2917Z" fill="#6B788E"/>
</svg>
