<svg width="24" height="24" viewBox="0 0 24 24" fill="none" xmlns="http://www.w3.org/2000/svg">
<path d="M14.22 21.6293C13.04 21.6293 11.37 20.7993 10.05 16.8293L9.33 14.6693L7.17 13.9493C3.21 12.6293 2.38 10.9593 2.38 9.77934C2.38 8.60934 3.21 6.92934 7.17 5.59934L15.66 2.76934C17.78 2.05934 19.55 2.26934 20.64 3.34934C21.73 4.42934 21.94 6.20934 21.23 8.32934L18.4 16.8193C17.07 20.7993 15.4 21.6293 14.22 21.6293ZM7.64 7.02934C4.86 7.95934 3.87 9.05934 3.87 9.77934C3.87 10.4993 4.86 11.5993 7.64 12.5193L10.16 13.3593C10.38 13.4293 10.56 13.6093 10.63 13.8293L11.47 16.3493C12.39 19.1293 13.5 20.1193 14.22 20.1193C14.94 20.1193 16.04 19.1293 16.97 16.3493L19.8 7.85934C20.31 6.31934 20.22 5.05934 19.57 4.40934C18.92 3.75934 17.66 3.67934 16.13 4.18934L7.64 7.02934Z" fill="white"/>
<path d="M10.11 14.4C9.92005 14.4 9.73005 14.33 9.58005 14.18C9.29005 13.89 9.29005 13.41 9.58005 13.12L13.16 9.53C13.45 9.24 13.93 9.24 14.22 9.53C14.51 9.82 14.51 10.3 14.22 10.59L10.64 14.18C10.5 14.33 10.3 14.4 10.11 14.4Z" fill="white"/>
</svg>
