<svg width="44" height="44" viewBox="0 0 44 44" fill="none" xmlns="http://www.w3.org/2000/svg">
<path d="M22.1283 16.4098C22.0549 16.4098 21.9449 16.4098 21.8533 16.4098C19.9283 16.3364 18.4066 14.7781 18.4066 12.8348C18.4066 10.8548 20.0016 9.25977 21.9816 9.25977C23.9616 9.25977 25.5566 10.8731 25.5566 12.8348C25.575 14.7781 24.0533 16.3548 22.1283 16.4098Z" fill="#6B788E"/>
<path d="M16.9583 21.9277C14.52 23.5594 14.52 26.2177 16.9583 27.8494C19.7267 29.7011 24.2733 29.7011 27.0417 27.8494C29.48 26.2177 29.48 23.5594 27.0417 21.9277C24.2733 20.0944 19.745 20.0944 16.9583 21.9277Z" fill="#6B788E"/>
<path opacity="0.4" d="M33 3.66602H11C7.95667 3.66602 5.5 6.10435 5.5 9.11102V29.1127C5.5 32.1193 7.95667 34.5577 11 34.5577H12.3933C13.86 34.5577 15.2533 35.126 16.28 36.1527L19.415 39.251C20.845 40.6627 23.1733 40.6627 24.6033 39.251L27.7383 36.1527C28.765 35.126 30.1767 34.5577 31.625 34.5577H33C36.0433 34.5577 38.5 32.1193 38.5 29.1127V9.11102C38.5 6.10435 36.0433 3.66602 33 3.66602ZM22 9.25768C23.98 9.25768 25.575 10.871 25.575 12.8327C25.575 14.776 24.035 16.3343 22.1283 16.4077C22.055 16.4077 21.945 16.4077 21.8533 16.4077C19.9283 16.3343 18.4067 14.776 18.4067 12.8327C18.425 10.871 20.02 9.25768 22 9.25768ZM27.0417 27.8477C24.2733 29.6993 19.7267 29.6993 16.9583 27.8477C14.52 26.2343 14.52 23.5577 16.9583 21.926C19.745 20.0743 24.2917 20.0743 27.0417 21.926C29.48 23.5577 29.48 26.216 27.0417 27.8477Z" fill="#6B788E"/>
</svg>
