<svg width="20" height="20" viewBox="0 0 20 20" fill="none" xmlns="http://www.w3.org/2000/svg">
<path d="M12.7169 18.5422H7.28356C3.19189 18.5422 1.44189 16.7922 1.44189 12.7006V12.5922C1.44189 8.89222 2.90023 7.10888 6.16689 6.80055C6.50023 6.77555 6.81689 7.02555 6.85023 7.36722C6.88356 7.70888 6.63356 8.01722 6.28356 8.05055C3.66689 8.29222 2.69189 9.52555 2.69189 12.6006V12.7089C2.69189 16.1006 3.89189 17.3006 7.28356 17.3006H12.7169C16.1086 17.3006 17.3086 16.1006 17.3086 12.7089V12.6006C17.3086 9.50888 16.3169 8.27555 13.6502 8.05055C13.3086 8.01722 13.0502 7.71722 13.0836 7.37555C13.1169 7.03388 13.4086 6.77555 13.7586 6.80888C17.0752 7.09222 18.5586 8.88388 18.5586 12.6089V12.7172C18.5586 16.7922 16.8086 18.5422 12.7169 18.5422Z" fill="#354764"/>
<path d="M10 13.1249C9.65833 13.1249 9.375 12.8416 9.375 12.4999V3.0166C9.375 2.67493 9.65833 2.3916 10 2.3916C10.3417 2.3916 10.625 2.67493 10.625 3.0166V12.4999C10.625 12.8416 10.3417 13.1249 10 13.1249Z" fill="#354764"/>
<path d="M12.7917 5.50052C12.6334 5.50052 12.475 5.44219 12.35 5.31719L10 2.96719L7.65003 5.31719C7.40837 5.55885 7.00837 5.55885 6.7667 5.31719C6.52503 5.07552 6.52503 4.67552 6.7667 4.43385L9.55837 1.64219C9.80003 1.40052 10.2 1.40052 10.4417 1.64219L13.2334 4.43385C13.475 4.67552 13.475 5.07552 13.2334 5.31719C13.1167 5.44219 12.95 5.50052 12.7917 5.50052Z" fill="#354764"/>
</svg>
