<svg width="24" height="25" viewBox="0 0 24 25" fill="none" xmlns="http://www.w3.org/2000/svg">
<g clip-path="url(#clip0_1178_22858)">
<path d="M11.9998 10.3184V14.9656H18.4579C18.1743 16.4602 17.3233 17.7257 16.047 18.5766L19.9415 21.5984C22.2106 19.5039 23.5197 16.4276 23.5197 12.773C23.5197 11.9221 23.4433 11.1039 23.3015 10.3185L11.9998 10.3184Z" fill="#4285F4"/>
<path d="M5.27461 14.7852L4.39625 15.4575L1.28711 17.8793C3.26165 21.7956 7.30862 24.5011 11.9995 24.5011C15.2394 24.5011 17.9557 23.432 19.9412 21.5994L16.0467 18.5775C14.9776 19.2975 13.614 19.7339 11.9995 19.7339C8.87951 19.7339 6.22868 17.6285 5.27952 14.7921L5.27461 14.7852Z" fill="#34A853"/>
<path d="M1.28718 7.12109C0.469042 8.73557 0 10.5574 0 12.4992C0 14.441 0.469042 16.2628 1.28718 17.8773C1.28718 17.8881 5.27997 14.7791 5.27997 14.7791C5.03998 14.0591 4.89812 13.2955 4.89812 12.4991C4.89812 11.7026 5.03998 10.939 5.27997 10.219L1.28718 7.12109Z" fill="#FBBC05"/>
<path d="M11.9997 5.27818C13.767 5.27818 15.3379 5.88907 16.5925 7.06727L20.0288 3.63095C17.9452 1.68917 15.2398 0.5 11.9997 0.5C7.30887 0.5 3.26165 3.19454 1.28711 7.12183L5.27978 10.22C6.22882 7.38362 8.87976 5.27818 11.9997 5.27818Z" fill="#EA4335"/>
</g>
<defs>
<clipPath id="clip0_1178_22858">
<rect width="24" height="24" fill="white" transform="translate(0 0.5)"/>
</clipPath>
</defs>
</svg>
