<svg width="16" height="20" viewBox="0 0 16 20" fill="none" xmlns="http://www.w3.org/2000/svg">
<path d="M2.49998 1.75H13.5C14.4166 1.75 15.1666 2.5 15.1666 3.41667V5.25C15.1666 5.91667 14.75 6.75 14.3333 7.16667L10.75 10.3333C10.25 10.75 9.91665 11.5833 9.91665 12.25V15.8333C9.91665 16.3333 9.58331 17 9.16665 17.25L7.99998 18C6.91665 18.6667 5.41665 17.9167 5.41665 16.5833V12.1667C5.41665 11.5833 5.08331 10.8333 4.74998 10.4167L1.58331 7.08333C1.16665 6.66667 0.833313 5.91667 0.833313 5.41667V3.5C0.833313 2.5 1.58331 1.75 2.49998 1.75Z" stroke="#42526D" stroke-width="1.6" stroke-miterlimit="10" stroke-linecap="round" stroke-linejoin="round"/>
</svg>
