<svg width="34" height="24" viewBox="0 0 34 24" fill="none" xmlns="http://www.w3.org/2000/svg">
<g clip-path="url(#clip0_1178_22795)">
<path d="M32.9308 3.81886C32.5417 2.35049 31.419 1.20068 29.9799 0.807949C28.0468 0.0464948 9.3233 -0.326596 3.89185 0.829768C2.45273 1.22686 1.32582 2.37231 0.94091 3.84068C0.0684577 7.74613 0.00216836 16.1898 0.962294 20.1825C1.35148 21.6509 2.47412 22.8007 3.91324 23.1934C7.74091 24.0923 25.9384 24.2189 30.0013 23.1934C31.4404 22.7963 32.5673 21.6509 32.9522 20.1825C33.8824 15.9279 33.9487 8.00795 32.9308 3.81886Z" fill="#FF0000"/>
<path d="M22.4529 12.0007L13.7283 6.89522V17.1061L22.4529 12.0007Z" fill="white"/>
<path d="M22.4528 12L13.7283 6.89453V17.1054L22.4528 12Z" fill="white"/>
</g>
<defs>
<clipPath id="clip0_1178_22795">
<rect width="34" height="24" fill="white"/>
</clipPath>
</defs>
</svg>
